<?xml version="1.0" standalone="no"?>
<!DOCTYPE svg PUBLIC "-//W3C//DTD SVG 20010904//EN"
 "http://www.w3.org/TR/2001/REC-SVG-20010904/DTD/svg10.dtd">
<svg version="1.0" xmlns="http://www.w3.org/2000/svg"
 width="225.000000pt" height="225.000000pt" viewBox="0 0 225.000000 225.000000"
 preserveAspectRatio="xMidYMid meet">

<g transform="translate(0.000000,225.000000) scale(0.100000,-0.100000)"
fill="#000000" stroke="none">
<path d="M631 1923 c-25 -9 -66 -37 -92 -63 -145 -145 -70 -386 132 -429 140
-30 284 74 304 220 14 99 -47 214 -138 261 -55 27 -148 33 -206 11z"/>
<path d="M1290 1427 c-54 -17 -134 -103 -148 -159 -16 -62 -15 -97 3 -149 35
-99 121 -159 227 -159 70 0 111 16 163 61 51 45 75 100 75 174 0 171 -155 284
-320 232z"/>
<path d="M537 1353 c-8 -8 -9 -90 -1 -119 4 -14 19 -24 49 -32 66 -17 93 -59
107 -165 13 -94 4 -121 -36 -115 -17 2 -21 10 -22 43 -1 44 -13 130 -21 150
-8 21 -60 38 -96 31 -19 -3 -44 -17 -56 -30 -21 -22 -22 -31 -16 -88 4 -35 14
-73 22 -86 19 -30 10 -52 -20 -52 -36 0 -44 16 -58 112 -11 80 -10 89 8 124
11 21 33 45 50 53 l31 16 -5 70 c-3 39 -7 71 -8 73 -8 10 -107 -53 -133 -83
-59 -73 -65 -110 -70 -430 -2 -193 0 -302 7 -327 14 -46 61 -86 112 -94 38 -6
39 -7 39 -50 l0 -44 150 0 150 0 0 93 c0 75 -4 99 -22 133 -26 49 -20 84 22
125 32 33 92 40 126 14 28 -21 31 -19 37 23 9 53 65 141 114 178 35 27 90 52
151 70 9 3 4 15 -17 41 -63 79 -92 187 -73 270 l10 42 -42 21 c-23 11 -44 20
-47 20 -2 0 -4 -55 -4 -123 0 -101 3 -127 18 -148 30 -45 4 -99 -55 -114 -22
-6 -33 -1 -59 24 -26 27 -30 37 -25 64 4 17 18 42 31 55 24 22 25 28 25 142 0
114 -1 120 -20 120 -11 0 -54 -25 -95 -56 l-75 -56 -75 56 c-71 54 -94 64
-108 49z"/>
<path d="M1628 998 c-30 -24 -58 -83 -58 -123 0 -72 61 -135 131 -135 57 0
129 69 129 125 0 24 -77 102 -124 125 -49 23 -57 24 -78 8z"/>
<path d="M1120 862 c-40 -11 -68 -29 -100 -61 -66 -66 -80 -123 -80 -330 l0
-162 83 3 82 3 5 115 5 115 28 3 27 3 0 -120 0 -121 200 0 200 0 0 120 c0 120
0 120 24 120 28 0 36 -32 36 -157 l0 -83 85 0 85 0 -1 143 c0 78 -3 160 -7
181 l-7 40 -80 0 c-66 1 -87 5 -118 25 -48 30 -87 88 -94 140 l-6 41 -156 -1
c-112 0 -171 -5 -211 -17z"/>
<path d="M762 618 c-18 -18 -15 -52 8 -81 17 -21 20 -40 20 -126 l0 -101 45 0
45 0 0 111 c0 115 -5 136 -48 182 -28 29 -51 34 -70 15z"/>
<path d="M1893 595 c-26 -33 -28 -42 -33 -160 l-5 -125 48 0 47 0 0 103 c0 85
3 107 20 132 24 36 25 49 4 69 -25 25 -51 19 -81 -19z"/>
</g>
</svg>
