<?xml version="1.0" standalone="no"?>
<!DOCTYPE svg PUBLIC "-//W3C//DTD SVG 20010904//EN"
 "http://www.w3.org/TR/2001/REC-SVG-20010904/DTD/svg10.dtd">
<svg version="1.0" xmlns="http://www.w3.org/2000/svg"
 width="1300.000000pt" height="910.000000pt" viewBox="0 0 1300.000000 910.000000"
 preserveAspectRatio="xMidYMid meet">

<g transform="translate(0.000000,910.000000) scale(0.100000,-0.100000)"
fill="#000000" stroke="none">
<path d="M5480 8310 c-130 -14 -249 -51 -355 -111 -42 -24 -53 -34 -43 -41 9
-7 8 -8 -6 -4 -21 7 -49 -11 -39 -27 3 -6 1 -7 -5 -3 -7 4 -35 -16 -67 -48
-40 -39 -54 -59 -49 -72 4 -15 4 -16 -4 -5 -8 11 -15 6 -34 -25 -14 -21 -33
-55 -43 -74 -30 -60 -30 -60 -98 -38 -34 12 -67 25 -74 30 -7 5 -3 -18 10 -56
11 -36 25 -62 30 -59 5 3 6 -4 2 -17 -5 -17 -4 -21 5 -15 8 5 11 4 6 -3 -3 -6
5 -39 18 -74 13 -35 36 -96 51 -135 18 -50 32 -73 43 -73 15 0 15 -2 2 -10 -8
-5 -12 -12 -9 -15 4 -3 68 26 143 64 76 38 134 71 129 73 -4 3 -3 4 3 2 7 -1
44 15 84 35 l72 38 -48 18 c-122 45 -113 37 -111 98 1 30 5 50 8 45 9 -14 40
81 32 96 -3 6 -3 8 2 4 4 -4 21 14 38 40 16 26 50 72 76 102 25 30 40 51 34
47 -8 -5 -13 -3 -13 3 0 7 7 9 15 6 18 -6 102 50 97 66 -1 5 2 7 7 3 6 -3 34
5 63 18 73 33 111 44 198 57 103 15 260 11 377 -10 54 -10 99 -16 101 -15 9 8
-93 37 -207 59 -146 29 -323 39 -441 26z m277 -26 c-3 -3 -12 -4 -19 -1 -8 3
-5 6 6 6 11 1 17 -2 13 -5z m-467 -34 c-8 -5 -19 -10 -25 -10 -5 0 -3 5 5 10
8 5 20 10 25 10 6 0 3 -5 -5 -10z m-280 -159 c0 -5 -7 -12 -16 -15 -14 -5 -15
-4 -4 9 14 17 20 19 20 6z m213 -46 c-3 -9 -8 -14 -10 -11 -3 3 -2 9 2 15 9
16 15 13 8 -4z m-74 -120 c0 -5 -4 -3 -9 5 -5 8 -9 22 -9 30 0 16 17 -16 18
-35z m-362 -267 c-2 -13 -4 -5 -4 17 -1 22 1 32 4 23 2 -10 2 -28 0 -40z m393
-18 c0 -5 -2 -10 -4 -10 -3 0 -8 5 -11 10 -3 6 -1 10 4 10 6 0 11 -4 11 -10z"/>
<path d="M6530 7888 c0 -7 -10 -36 -22 -65 -23 -56 -19 -73 19 -76 22 -1 21 2
29 -94 l6 -72 57 -11 c31 -7 66 -14 79 -17 12 -3 22 0 22 6 0 6 -9 11 -20 11
-13 0 -20 6 -19 18 0 10 3 12 6 5 2 -7 9 -13 14 -13 5 0 2 14 -6 30 -19 36
-15 43 33 74 46 28 121 53 187 62 59 7 173 -17 223 -47 25 -14 38 -17 47 -9 9
7 16 5 26 -7 13 -16 12 -17 -3 -5 -10 8 -19 9 -22 3 -3 -5 11 -19 31 -32 21
-12 69 -54 107 -93 46 -47 60 -57 41 -31 -55 75 -166 197 -173 190 -3 -3 -12
4 -19 15 -10 14 -21 19 -33 15 -10 -3 -21 -1 -25 4 -4 7 1 8 11 4 33 -12 4 15
-44 42 -84 47 -183 75 -268 75 -73 0 -188 -25 -179 -40 2 -3 -8 -6 -22 -5 -15
0 -28 6 -31 13 -2 6 -9 9 -14 6 -7 -4 -8 -2 -4 4 4 6 1 20 -6 32 -14 22 -28
26 -28 8z m293 -35 c-7 -2 -19 -2 -25 0 -7 3 -2 5 12 5 14 0 19 -2 13 -5z
m-80 -10 c-7 -2 -21 -2 -30 0 -10 3 -4 5 12 5 17 0 24 -2 18 -5z m-199 -21 c3
-5 -1 -9 -9 -9 -8 0 -12 4 -9 9 3 4 7 8 9 8 2 0 6 -4 9 -8z m606 -106 c-7 -7
-13 -7 -20 0 -6 6 -3 10 10 10 13 0 16 -4 10 -10z"/>
<path d="M6468 7668 c-10 -10 -14 -18 -9 -18 10 0 36 29 30 34 -2 1 -12 -6
-21 -16z"/>
<path d="M6075 7059 c-4 -6 -17 -14 -29 -19 -16 -7 -17 -9 -4 -9 9 -1 23 5 31
13 8 8 27 16 43 19 l29 4 -32 2 c-17 0 -35 -4 -38 -10z"/>
<path d="M7277 7059 c7 -7 15 -10 18 -7 3 3 -2 9 -12 12 -14 6 -15 5 -6 -5z"/>
<path d="M5020 7044 c-102 -14 -170 -28 -170 -35 0 -5 -10 -9 -22 -9 -31 0
-109 -31 -103 -41 3 -4 0 -11 -6 -15 -8 -4 -9 -3 -5 4 13 22 -11 12 -65 -24
-61 -43 -101 -83 -93 -95 3 -5 0 -17 -6 -26 -9 -15 -10 -14 -4 7 6 21 5 23 -8
13 -26 -22 -68 -110 -62 -129 4 -15 4 -16 -4 -5 -8 10 -11 6 -17 -18 -3 -17
-7 -34 -7 -38 0 -5 -4 -16 -10 -27 -8 -14 -17 -17 -40 -12 -26 5 -29 3 -24
-12 4 -11 0 -9 -10 6 -9 12 -21 22 -26 22 -5 0 11 -28 34 -61 24 -34 48 -69
53 -77 6 -9 27 -40 48 -70 43 -60 33 -60 107 6 14 12 46 39 72 60 26 20 45 43
43 50 -3 8 2 12 12 10 9 -2 18 3 20 10 3 8 -9 12 -39 13 -23 1 -47 1 -52 0 -5
-1 -7 35 -4 83 14 224 174 359 473 400 l100 14 -85 -1 c-47 -1 -92 -2 -100 -3z
m-230 -74 c-8 -5 -19 -10 -25 -10 -5 0 -3 5 5 10 8 5 20 10 25 10 6 0 3 -5 -5
-10z m-273 -232 c-3 -8 -6 -5 -6 6 -1 11 2 17 5 13 3 -3 4 -12 1 -19z m70 -60
c-3 -8 -6 -5 -6 6 -1 11 2 17 5 13 3 -3 4 -12 1 -19z m20 -85 c-3 -10 -5 -2
-5 17 0 19 2 27 5 18 2 -10 2 -26 0 -35z m66 -70 c-4 -10 -9 -11 -19 -2 -18
15 -18 15 5 15 11 0 17 -5 14 -13z"/>
<path d="M9820 7046 c0 -2 7 -7 16 -10 8 -3 12 -2 9 4 -6 10 -25 14 -25 6z"/>
<path d="M6250 7010 c-8 -5 -81 -10 -162 -10 -121 0 -164 -4 -247 -24 -109
-27 -153 -51 -176 -97 -9 -16 -19 -29 -24 -29 -5 0 -11 -13 -14 -30 -5 -24 0
-35 32 -67 182 -180 182 -488 0 -658 l-49 -46 0 -1054 0 -1055 100 0 100 0 0
1265 0 1265 332 -2 333 -3 8 -47 c7 -37 18 -56 53 -88 l44 -40 669 0 669 0 16
25 c9 14 29 28 44 32 15 5 -290 10 -678 13 l-705 5 -11 25 c-6 14 -14 37 -18
53 l-6 27 1240 0 c1240 0 1240 0 1240 -20 0 -11 -7 -36 -14 -55 l-15 -35 -480
0 -481 0 0 -35 0 -35 474 0 c312 0 484 4 503 11 49 18 72 49 85 111 l12 58
328 0 328 0 0 -2560 0 -2560 -1985 0 -1985 0 0 602 c0 331 -3 598 -7 595 -4
-4 -32 -74 -64 -155 l-56 -147 -37 2 -36 1 0 -407 c0 -461 2 -476 70 -553 46
-53 129 -96 191 -98 24 -1 495 -1 1047 -1 989 1 1002 1 1002 21 0 23 28 40 65
40 37 0 65 -17 65 -41 0 -19 8 -19 878 -17 l877 3 49 24 c65 33 122 94 146
158 20 53 20 81 20 2728 0 1905 -3 2676 -11 2681 -6 3 -8 17 -4 31 4 16 2 22
-5 18 -5 -3 -10 -2 -10 3 0 24 -98 116 -149 140 l-56 27 -1248 2 c-979 2
-1249 0 -1252 -10 -2 -6 -5 -45 -8 -84 l-4 -73 853 0 854 0 -2 -102 -3 -103
-917 -5 -917 -5 -28 -27 c-38 -36 -117 -74 -194 -94 -119 -31 -317 -2 -413 60
-142 91 -218 213 -234 376 -6 67 -9 78 -22 70z m3622 -4537 c3 -115 6 -138 18
-138 12 0 15 23 18 138 l3 137 39 0 40 0 0 -205 c0 -205 0 -206 -25 -230 -21
-22 -33 -25 -95 -25 l-71 0 3 38 c3 35 5 37 39 38 54 1 69 10 69 41 0 23 -2
25 -12 10 -22 -28 -63 -32 -87 -8 -20 20 -21 32 -21 181 l0 160 40 0 39 0 3
-137z"/>
<path d="M5598 6988 c5 -5 16 -8 23 -6 8 3 3 7 -10 11 -17 4 -21 3 -13 -5z"/>
<path d="M9920 6982 c0 -5 9 -17 20 -27 11 -10 20 -24 20 -30 0 -7 7 -19 17
-26 15 -13 15 -12 3 11 -17 32 -60 84 -60 72z"/>
<path d="M5657 6918 c-10 -17 -16 -33 -13 -35 2 -3 10 6 17 19 6 12 16 26 22
29 5 4 5 9 0 12 -5 3 -16 -8 -26 -25z"/>
<path d="M6936 6813 c-6 -14 -5 -15 5 -6 7 7 10 15 7 18 -3 3 -9 -2 -12 -12z"/>
<path d="M7420 6745 l0 -45 385 0 385 0 0 45 0 45 -385 0 -385 0 0 -45z"/>
<path d="M3466 6594 c-64 -23 -122 -65 -151 -108 -22 -34 -25 -48 -21 -84 10
-77 -5 -87 -174 -117 -128 -23 -185 -42 -219 -74 -39 -37 -40 -66 -6 -209 l26
-105 -29 -41 c-16 -23 -32 -49 -35 -59 -11 -29 20 -88 69 -133 44 -42 44 -42
35 -86 -20 -88 23 -186 106 -239 54 -33 94 -37 173 -13 l54 16 -36 31 c-49 43
-71 88 -59 120 10 26 47 57 68 57 33 0 135 -258 135 -341 0 -75 6 -84 49 -69
25 8 42 9 61 1 28 -11 33 -23 41 -98 3 -23 14 -55 26 -72 20 -28 24 -29 75
-24 52 5 55 4 97 -34 72 -65 89 -73 150 -73 57 0 152 27 191 54 13 9 43 16 68
16 45 0 90 25 90 50 0 6 16 27 35 49 75 83 78 145 10 211 -26 25 -35 42 -35
67 0 25 -10 43 -42 76 -24 24 -52 50 -64 58 -11 8 -27 28 -35 44 -8 17 -31 38
-53 49 -36 17 -45 18 -100 7 -153 -32 -224 -119 -214 -265 l4 -62 -101 28
c-55 15 -112 31 -127 34 -41 9 -142 213 -164 332 -32 171 -3 334 74 415 81 85
235 123 357 88 68 -20 156 -108 180 -180 9 -28 20 -49 25 -46 14 9 40 97 40
134 0 45 -28 106 -70 151 -17 19 -38 47 -46 62 -13 24 -11 31 12 77 23 44 25
53 14 85 -18 56 -70 89 -144 94 -53 3 -66 0 -99 -22 -21 -14 -42 -26 -46 -26
-4 0 -11 30 -14 68 -3 37 -10 79 -16 95 -10 25 -14 27 -68 26 -32 0 -75 -7
-97 -15z m609 -1204 c16 -18 17 -21 1 -45 -29 -45 -129 -69 -203 -49 -19 5
-16 10 32 49 76 63 139 79 170 45z"/>
<path d="M7980 6305 c-10 -12 -10 -15 4 -15 9 0 16 7 16 15 0 8 -2 15 -4 15
-2 0 -9 -7 -16 -15z"/>
<path d="M6548 6123 c-14 -9 -31 -27 -37 -40 -14 -30 -15 -272 -1 -307 30 -80
186 -81 224 -1 9 18 16 49 16 69 l0 36 -50 0 -50 0 0 -37 c0 -46 -13 -68 -34
-60 -14 5 -16 27 -16 147 0 120 2 142 16 147 23 8 34 -14 34 -69 l0 -48 50 0
50 0 0 46 c0 57 -23 108 -56 123 -36 16 -115 13 -146 -6z"/>
<path d="M7098 6132 c-67 -3 -60 12 -83 -174 -8 -70 -19 -148 -24 -175 -5 -26
-7 -51 -5 -55 3 -5 27 -8 54 -8 l49 0 3 38 c2 30 7 38 26 40 18 3 22 -1 22
-21 0 -49 9 -57 61 -57 27 0 49 4 49 9 0 10 -35 247 -50 336 -5 33 -10 61 -10
61 0 6 -44 9 -92 6z m33 -197 c4 -60 2 -70 -13 -73 -20 -4 -23 22 -11 117 8
68 20 47 24 -44z"/>
<path d="M7328 6133 l-48 -4 0 -205 0 -204 50 0 50 0 0 210 c0 116 -1 209 -2
208 -2 -1 -24 -3 -50 -5z"/>
<path d="M7430 5928 l0 -208 45 0 45 0 1 133 c1 140 6 135 29 -28 8 -49 18
-93 24 -97 14 -10 56 -10 56 0 0 4 8 63 17 132 l18 125 5 -130 5 -130 43 -3
42 -3 0 204 0 205 -47 4 c-91 6 -91 6 -98 -80 -12 -132 -24 -126 -41 21 -3 31
-9 57 -13 58 -3 0 -34 1 -69 2 l-62 2 0 -207z"/>
<path d="M8148 6111 l-33 -29 -3 -122 c-4 -142 1 -178 28 -208 52 -56 167 -46
202 18 16 31 19 53 16 173 l-3 139 -33 29 c-27 25 -41 29 -87 29 -46 0 -60 -4
-87 -29z m106 -48 c8 -19 6 -250 -1 -270 -8 -21 -30 -15 -37 10 -8 29 -8 172
0 231 7 47 26 61 38 29z"/>
<path d="M8410 5928 l0 -208 50 0 50 0 0 96 c0 86 2 95 18 92 14 -3 17 -17 20
-96 l3 -92 44 0 45 0 0 89 c0 90 -11 120 -43 121 -7 1 0 8 16 16 25 13 27 20
27 73 0 43 -5 65 -20 84 -19 24 -27 26 -115 29 l-95 3 0 -207z m128 133 c20
-12 12 -85 -10 -89 -15 -3 -18 4 -18 47 0 51 4 58 28 42z"/>
<path d="M8949 6133 l-67 -4 -7 -84 c-4 -47 -10 -87 -15 -90 -4 -3 -11 21 -14
53 -4 31 -10 72 -13 90 l-5 32 -69 0 -69 0 2 -202 3 -203 43 -3 42 -3 1 133
c0 153 11 147 31 -16 l13 -110 31 -3 c36 -4 32 -15 56 157 l13 95 5 -125 5
-125 43 -3 42 -3 0 210 c0 116 -1 210 -2 209 -2 -1 -33 -3 -69 -5z"/>
<path d="M6794 5928 l1 -203 83 -3 82 -3 0 41 c0 38 -2 40 -30 40 l-30 0 0
165 0 165 -53 0 -54 0 1 -202z"/>
<path d="M7910 5924 l0 -205 48 3 47 3 1 85 2 85 30 3 c26 3 30 8 34 38 4 32
3 34 -28 34 -30 0 -32 2 -36 41 -2 22 -2 42 1 45 2 2 19 4 38 4 31 0 33 2 33
35 l0 35 -85 0 -85 0 0 -206z"/>
<path d="M3235 4914 c-33 -18 -125 -59 -205 -90 -481 -188 -504 -200 -608
-297 -69 -66 -124 -140 -158 -213 l-26 -58 5 -330 c5 -337 13 -419 58 -639 72
-354 168 -482 463 -617 84 -39 96 -48 96 -70 0 -14 -22 -162 -50 -330 -27
-168 -66 -406 -85 -530 -20 -124 -45 -281 -56 -348 -11 -68 -19 -126 -17 -128
2 -2 58 -10 123 -19 456 -60 1013 -39 1467 54 194 40 508 127 508 141 0 4 -27
140 -61 301 -33 162 -70 342 -81 400 l-22 106 -80 7 c-45 3 -105 6 -134 6 -48
0 -53 2 -63 26 -8 22 -2 47 36 146 25 66 45 124 45 129 0 5 -12 3 -27 -5 -78
-39 -299 -75 -470 -76 -39 0 -75 -4 -78 -10 -8 -14 -109 -13 -156 2 -92 27
-161 132 -161 243 -1 125 102 234 222 235 48 0 135 -35 159 -64 8 -10 38 -30
65 -44 49 -26 56 -27 216 -27 202 0 213 4 255 93 24 50 39 68 75 89 85 50 92
59 138 181 52 139 203 539 239 635 l27 68 -60 147 c-32 80 -88 205 -124 276
l-65 130 -240 96 c-132 53 -273 113 -314 134 -40 20 -75 35 -77 33 -2 -1 8
-38 21 -80 33 -103 63 -271 70 -398 l6 -104 -32 55 c-17 30 -62 104 -99 164
l-67 110 32 45 33 46 -28 39 c-41 55 -95 88 -150 94 -44 4 -49 2 -87 -38 -23
-22 -47 -55 -53 -71 -11 -27 -10 -32 11 -55 13 -14 37 -34 54 -44 27 -16 34
-30 48 -92 9 -40 19 -91 22 -113 6 -38 6 -39 -10 -20 -9 11 -28 43 -42 70 -46
90 -165 288 -235 390 -71 105 -194 256 -206 254 -4 -1 -34 -16 -67 -35z m293
-2380 c20 -14 22 -23 22 -120 0 -96 -2 -104 -19 -104 -11 0 -22 6 -25 13 -5
10 -7 10 -12 0 -7 -16 -46 -17 -62 -1 -7 7 -12 27 -12 46 0 27 8 42 40 71 41
38 51 61 25 61 -8 0 -15 -7 -15 -15 0 -9 -9 -15 -25 -15 -20 0 -25 5 -25 24 0
28 33 56 65 56 11 0 31 -7 43 -16z"/>
<path d="M3482 2408 c-17 -17 -15 -48 3 -48 10 0 15 10 15 30 0 34 -1 35 -18
18z"/>
<path d="M4950 3879 c0 -5 5 -7 10 -4 6 3 10 8 10 11 0 2 -4 4 -10 4 -5 0 -10
-5 -10 -11z"/>
<path d="M5067 3883 c18 -2 50 -2 70 0 21 2 7 4 -32 4 -38 0 -55 -2 -38 -4z"/>
<path d="M5208 3873 c7 -3 16 -2 19 1 4 3 -2 6 -13 5 -11 0 -14 -3 -6 -6z"/>
<path d="M5463 3873 c15 -2 39 -2 55 0 15 2 2 4 -28 4 -30 0 -43 -2 -27 -4z"/>
<path d="M5728 3873 c28 -2 76 -2 105 0 28 2 5 3 -53 3 -58 0 -81 -1 -52 -3z"/>
<path d="M5963 3873 c26 -2 68 -2 95 0 26 2 4 3 -48 3 -52 0 -74 -1 -47 -3z"/>
<path d="M6183 3863 c15 -2 39 -2 55 0 15 2 2 4 -28 4 -30 0 -43 -2 -27 -4z"/>
<path d="M6278 3863 c7 -3 16 -2 19 1 4 3 -2 6 -13 5 -11 0 -14 -3 -6 -6z"/>
<path d="M4896 3744 c-8 -20 -8 -24 2 -24 4 0 8 9 9 20 2 24 -3 26 -11 4z"/>
<path d="M4921 3744 c0 -11 3 -14 6 -6 3 7 2 16 -1 19 -3 4 -6 -2 -5 -13z"/>
<path d="M6211 3664 c0 -11 3 -14 6 -6 3 7 2 16 -1 19 -3 4 -6 -2 -5 -13z"/>
<path d="M4867 3655 c-4 -11 -10 -27 -13 -35 -3 -8 1 -5 11 8 9 12 15 28 13
34 -3 7 -7 4 -11 -7z"/>
<path d="M4988 3603 c7 -3 16 -2 19 1 4 3 -2 6 -13 5 -11 0 -14 -3 -6 -6z"/>
<path d="M4831 3573 c-1 -6 -4 -20 -7 -30 -5 -17 -5 -17 6 0 6 10 9 23 6 30
-3 9 -5 9 -5 0z"/>
<path d="M6171 3544 c0 -11 3 -14 6 -6 3 7 2 16 -1 19 -3 4 -6 -2 -5 -13z"/>
<path d="M6110 3420 c0 -5 5 -10 11 -10 5 0 7 5 4 10 -3 6 -8 10 -11 10 -2 0
-4 -4 -4 -10z"/>
<path d="M4736 3303 c-6 -14 -5 -15 5 -6 7 7 10 15 7 18 -3 3 -9 -2 -12 -12z"/>
<path d="M5979 3241 c-13 -11 -22 -21 -19 -24 3 -2 16 6 30 19 29 29 22 32
-11 5z"/>
<path d="M4692 3211 c-6 -17 -9 -31 -6 -31 7 0 25 52 20 57 -2 2 -8 -10 -14
-26z"/>
<path d="M4677 3163 c-4 -3 -7 -13 -7 -22 1 -13 3 -13 11 2 11 19 8 33 -4 20z"/>
<path d="M5960 3140 c-13 -9 -13 -10 0 -10 8 0 22 5 30 10 13 9 13 10 0 10 -8
0 -22 -5 -30 -10z"/>
<path d="M5878 3123 c7 -3 16 -2 19 1 4 3 -2 6 -13 5 -11 0 -14 -3 -6 -6z"/>
<path d="M5769 3073 c-13 -16 -12 -17 4 -4 16 13 21 21 13 21 -2 0 -10 -8 -17
-17z"/>
<path d="M4691 3034 c0 -11 3 -14 6 -6 3 7 2 16 -1 19 -3 4 -6 -2 -5 -13z"/>
<path d="M4675 2990 c-3 -5 -1 -10 4 -10 6 0 11 5 11 10 0 6 -2 10 -4 10 -3 0
-8 -4 -11 -10z"/>
<path d="M4655 2960 c-3 -5 -1 -10 4 -10 6 0 11 5 11 10 0 6 -2 10 -4 10 -3 0
-8 -4 -11 -10z"/>
<path d="M4745 2960 c3 -5 8 -10 11 -10 2 0 4 5 4 10 0 6 -5 10 -11 10 -5 0
-7 -4 -4 -10z"/>
<path d="M4718 2823 c6 -2 18 -2 25 0 6 3 1 5 -13 5 -14 0 -19 -2 -12 -5z"/>
<path d="M4821 2816 c2 -2 18 -6 34 -10 22 -5 26 -4 15 4 -14 9 -59 15 -49 6z"/>
<path d="M5708 2813 c6 -2 18 -2 25 0 6 3 1 5 -13 5 -14 0 -19 -2 -12 -5z"/>
<path d="M5768 2813 c7 -3 16 -2 19 1 4 3 -2 6 -13 5 -11 0 -14 -3 -6 -6z"/>
<path d="M4921 2714 c0 -11 3 -14 6 -6 3 7 2 16 -1 19 -3 4 -6 -2 -5 -13z"/>
<path d="M5840 2690 c0 -11 2 -20 4 -20 2 0 6 9 9 20 3 11 1 20 -4 20 -5 0 -9
-9 -9 -20z"/>
<path d="M4905 2670 c-3 -5 -1 -10 4 -10 6 0 11 5 11 10 0 6 -2 10 -4 10 -3 0
-8 -4 -11 -10z"/>
<path d="M4780 2590 c-8 -5 -10 -10 -5 -10 6 0 17 5 25 10 8 5 11 10 5 10 -5
0 -17 -5 -25 -10z"/>
<path d="M4598 2513 c7 -3 16 -2 19 1 4 3 -2 6 -13 5 -11 0 -14 -3 -6 -6z"/>
<path d="M4440 2490 c0 -5 5 -10 11 -10 5 0 7 5 4 10 -3 6 -8 10 -11 10 -2 0
-4 -4 -4 -10z"/>
<path d="M4350 2290 c-6 -11 -8 -20 -6 -20 3 0 10 9 16 20 6 11 8 20 6 20 -3
0 -10 -9 -16 -20z"/>
<path d="M5298 2273 c12 -2 32 -2 45 0 12 2 2 4 -23 4 -25 0 -35 -2 -22 -4z"/>
<path d="M4838 2253 c23 -2 61 -2 85 0 23 2 4 4 -43 4 -47 0 -66 -2 -42 -4z"/>
<path d="M5018 2253 c7 -3 16 -2 19 1 4 3 -2 6 -13 5 -11 0 -14 -3 -6 -6z"/>
<path d="M5163 2253 c37 -2 97 -2 135 0 37 2 6 3 -68 3 -74 0 -105 -1 -67 -3z"/>
<path d="M0 445 l0 -445 6500 0 6500 0 0 445 0 445 -6500 0 -6500 0 0 -445z
m780 55 l0 -200 -35 0 -35 0 0 200 0 200 35 0 35 0 0 -200z m-115 105 c24 -23
25 -30 25 -149 0 -68 3 -131 6 -140 5 -13 -1 -16 -30 -16 -27 0 -36 4 -36 17
0 15 -2 14 -20 -2 -22 -20 -63 -23 -85 -5 -8 6 -17 28 -21 47 -9 50 15 94 70
129 38 23 46 34 44 54 -4 31 -32 33 -36 3 -3 -19 -10 -23 -38 -23 -31 0 -34 2
-34 30 0 46 39 80 90 80 30 0 47 -6 65 -25z m273 19 c41 -11 52 -51 52 -194
l0 -130 -29 0 c-16 0 -31 6 -34 13 -4 10 -7 10 -18 0 -18 -18 -74 -16 -93 3
-21 20 -21 93 -1 122 9 12 36 36 61 53 34 23 44 36 42 52 -4 29 -30 28 -43 0
-7 -17 -18 -23 -44 -23 -32 0 -33 1 -27 33 11 59 66 89 134 71z m234 -13 c12
-19 12 -19 36 0 30 23 55 24 76 3 13 -13 16 -42 16 -165 l0 -149 -30 0 -30 0
0 113 c0 123 -6 157 -25 157 -21 0 -25 -25 -25 -151 l0 -119 -35 0 -34 0 -3
133 c-3 109 -6 132 -18 132 -12 0 -15 -23 -18 -132 l-3 -133 -34 0 -35 0 0
160 0 160 35 0 c21 0 35 -5 35 -12 0 -8 6 -6 17 5 23 23 60 22 75 -2z m220
-121 c3 -121 4 -125 26 -128 22 -3 22 -3 22 127 0 80 4 131 10 132 59 7 55 20
58 -166 2 -94 0 -184 -3 -201 -7 -39 -38 -54 -110 -54 -54 0 -55 0 -55 30 0
27 3 30 34 30 49 0 66 9 66 35 0 23 -1 23 -30 9 -36 -18 -66 -6 -80 32 -6 14
-10 83 -10 154 l0 129 28 3 c15 2 30 1 34 -2 4 -3 9 -62 10 -130z m9913 90 c0
-27 -4 -50 -10 -50 -5 0 -10 23 -10 50 0 28 5 50 10 50 6 0 10 -22 10 -50z
m470 0 c0 -27 -4 -50 -10 -50 -5 0 -10 23 -10 50 0 28 5 50 10 50 6 0 10 -22
10 -50z m93 38 c7 -7 12 -24 12 -38 0 -34 -17 -50 -52 -50 -27 0 -28 2 -28 50
0 48 1 50 28 50 15 0 33 -5 40 -12z m160 -14 c2 -11 -4 -27 -13 -34 -21 -17
-19 -28 8 -33 16 -3 13 -5 -10 -6 -38 -1 -41 8 -13 34 27 25 27 59 0 52 -11
-3 -17 -1 -14 4 10 17 39 5 42 -17z m48 -31 c-2 -32 -4 -61 -5 -65 0 -5 -9 -8
-18 -7 -11 0 -13 3 -5 6 8 3 12 26 12 64 0 32 4 59 10 59 6 0 8 -24 6 -57z
m94 49 c0 -5 -10 -8 -21 -8 -51 2 -49 -61 2 -75 l24 -7 -25 -1 c-33 -1 -50 16
-50 49 0 14 5 31 12 38 14 14 58 16 58 4z m50 -4 l-25 -10 23 -9 c28 -11 38
-35 22 -54 -14 -17 -50 -20 -50 -5 0 5 7 7 16 3 9 -3 20 0 24 8 10 15 -6 39
-26 39 -8 0 -14 9 -14 20 0 15 6 20 28 19 l27 0 -25 -11z m65 -8 c3 -11 10
-20 15 -20 5 0 12 9 15 20 3 11 11 20 17 20 6 0 3 -11 -6 -25 -9 -13 -16 -36
-16 -50 0 -14 -4 -25 -10 -25 -5 0 -10 9 -10 20 0 12 -7 34 -15 50 -9 17 -11
30 -6 30 5 0 13 -9 16 -20z m125 5 c10 -12 10 -18 0 -30 -7 -8 -19 -15 -26
-15 -8 0 -14 -9 -14 -20 0 -11 -4 -20 -10 -20 -5 0 -10 23 -10 50 0 46 2 50
24 50 13 0 29 -7 36 -15z m68 -11 c2 -11 -4 -27 -13 -34 -21 -17 -19 -28 8
-33 16 -3 13 -5 -10 -6 -38 -1 -41 8 -13 34 27 25 27 59 0 52 -11 -3 -17 -1
-14 4 10 17 39 5 42 -17z m-1041 -39 l1 -40 -6 35 c-4 22 -13 35 -22 35 -9 0
-17 -13 -21 -35 l-6 -35 -2 38 c-1 26 -6 37 -16 37 -8 0 -15 -3 -16 -7 -2 -23
-10 -57 -14 -62 -3 -2 -5 14 -5 36 l0 40 53 -1 52 -1 2 -40z m81 4 c3 -34 1
-36 -25 -35 -37 1 -39 37 -3 47 l25 6 -25 12 -25 11 25 -3 c21 -2 25 -8 28
-38z m80 -16 c-3 -54 -5 -58 -28 -60 -25 -3 -25 -3 -2 7 12 5 22 15 22 23 0 8
-10 13 -22 13 -17 -1 -24 5 -26 22 -5 36 5 52 33 52 25 0 26 -2 23 -57z m90
35 c3 -14 -3 -18 -23 -18 -33 0 -29 -21 6 -32 22 -6 21 -7 -6 -5 -23 2 -31 7
-33 25 -2 13 -1 30 2 38 8 21 50 14 54 -8z m232 12 c0 -5 -4 -10 -10 -10 -5 0
-10 5 -10 10 0 6 5 10 10 10 6 0 10 -4 10 -10z m0 -60 c0 -5 -4 -10 -10 -10
-5 0 -10 5 -10 10 0 6 5 10 10 10 6 0 10 -4 10 -10z m-160 -190 c0 -47 -3 -60
-15 -60 -12 0 -15 13 -15 60 0 47 3 60 15 60 12 0 15 -13 15 -60z m-580 10 c0
-11 5 -20 10 -20 6 0 10 9 10 21 0 29 32 21 41 -11 l6 -25 8 28 c7 28 25 38
25 13 0 -27 -22 -76 -35 -76 -7 0 -16 15 -20 33 l-8 32 -6 -30 c-9 -44 -33
-37 -47 13 -11 35 -11 42 2 42 8 0 14 -9 14 -20z m140 0 c0 -11 5 -20 10 -20
6 0 10 9 10 21 0 29 32 21 41 -11 l6 -25 8 28 c11 42 28 33 20 -10 -8 -46 -12
-53 -29 -53 -8 0 -17 15 -21 33 l-8 32 -6 -30 c-9 -44 -33 -37 -47 13 -11 35
-11 42 2 42 8 0 14 -9 14 -20z m140 0 c0 -11 5 -20 10 -20 6 0 10 9 10 21 0
29 32 21 41 -11 l6 -25 8 28 c7 28 25 38 25 13 0 -27 -22 -76 -35 -76 -7 0
-16 15 -20 33 l-7 32 -10 -33 c-12 -43 -29 -36 -45 16 -10 35 -9 42 3 42 8 0
14 -9 14 -20z m235 8 c2 -7 6 -27 8 -44 5 -30 4 -31 -32 -30 -31 1 -36 4 -36
26 0 17 7 26 25 31 24 7 24 7 3 8 -13 1 -23 6 -23 11 0 15 50 12 55 -2z m153
-5 c5 -10 9 -29 7 -43 -1 -20 -7 -24 -36 -25 -30 0 -34 3 -34 25 0 17 7 26 25
31 24 7 24 7 3 8 -31 1 -29 21 2 21 13 0 28 -8 33 -17z m162 -4 c12 -22 7 -62
-8 -67 -8 -2 -12 9 -12 32 0 25 -4 36 -15 36 -10 0 -15 -11 -15 -35 0 -44 -18
-46 -22 -3 -4 46 -28 49 -28 4 0 -25 -4 -36 -15 -36 -11 0 -15 12 -15 44 l0
43 60 0 c48 0 63 -4 70 -18z m55 -6 l8 -28 10 28 c13 33 42 38 31 5 -19 -61
-45 -108 -59 -108 -18 0 -20 17 -3 22 10 4 9 16 -4 56 -13 41 -13 52 -3 52 7
0 16 -12 20 -27z m175 18 c0 -5 -9 -11 -20 -14 -11 -3 -20 -13 -20 -22 0 -9 9
-19 20 -22 23 -6 27 -23 6 -23 -31 0 -46 13 -46 39 0 15 5 32 12 39 14 14 48
16 48 3z m90 -5 c28 -35 -11 -93 -47 -70 -36 22 -23 84 17 84 10 0 23 -7 30
-14z m162 -21 c9 -33 4 -55 -12 -55 -5 0 -10 16 -10 35 0 24 -5 35 -15 35 -10
0 -15 -11 -15 -35 0 -44 -18 -46 -22 -3 -4 46 -28 49 -28 4 0 -25 -4 -36 -15
-36 -11 0 -15 12 -15 44 l0 44 62 -2 c60 -1 62 -2 70 -31z m-891 -48 c-13 -13
-26 -3 -16 12 3 6 11 8 17 5 6 -4 6 -10 -1 -17z m550 0 c-13 -13 -26 -3 -16
12 3 6 11 8 17 5 6 -4 6 -10 -1 -17z"/>
<path d="M592 427 c-26 -27 -28 -55 -7 -63 24 -9 42 12 43 51 2 41 -6 44 -36
12z"/>
<path d="M893 438 c-30 -32 -31 -78 -3 -78 25 0 32 17 28 65 l-3 37 -22 -24z"/>
<path d="M11820 580 c0 -33 3 -41 16 -38 26 5 41 35 28 56 -6 9 -19 18 -28 20
-13 3 -16 -5 -16 -38z"/>
<path d="M12370 600 c0 -11 7 -20 15 -20 8 0 15 9 15 20 0 11 -7 20 -15 20 -8
0 -15 -9 -15 -20z"/>
<path d="M11470 555 c0 -8 7 -15 15 -15 8 0 15 7 15 15 0 8 -7 15 -15 15 -8 0
-15 -7 -15 -15z"/>
<path d="M11554 586 c-8 -22 3 -49 19 -43 6 2 12 14 12 27 0 27 -22 39 -31 16z"/>
<path d="M11645 590 c-3 -5 3 -10 15 -10 12 0 18 5 15 10 -3 6 -10 10 -15 10
-5 0 -12 -4 -15 -10z"/>
<path d="M11657 333 c-12 -11 -8 -23 8 -23 8 0 15 7 15 15 0 16 -12 20 -23 8z"/>
<path d="M11807 333 c-12 -11 -8 -23 8 -23 8 0 15 7 15 15 0 16 -12 20 -23 8z"/>
<path d="M12283 344 c-8 -21 13 -42 28 -27 13 13 5 43 -11 43 -6 0 -13 -7 -17
-16z"/>
</g>
</svg>
